<?xml version="1.0" encoding="utf-8"?>
<!-- Generator: Adobe Illustrator 17.0.0, SVG Export Plug-In . SVG Version: 6.00 Build 0)  -->
<!DOCTYPE svg PUBLIC "-//W3C//DTD SVG 1.1//EN" "http://www.w3.org/Graphics/SVG/1.1/DTD/svg11.dtd">
<svg version="1.1" id="Layer_1" xmlns="http://www.w3.org/2000/svg" xmlns:xlink="http://www.w3.org/1999/xlink" x="0px" y="0px"
	 width="650px" height="437.6px" viewBox="0 0 650 437.6" enable-background="new 0 0 650 437.6" xml:space="preserve">
<path fill="#293038" d="M363.286,198.316c1.286,3.997,1.987,8.256,1.987,12.68c0,22.856-18.527,41.385-41.384,41.385
	c-22.857,0-41.385-18.529-41.385-41.385c0-4.424,0.701-8.683,1.986-12.68c-2.893,5.857-4.526,12.449-4.526,19.424
	c0,0.126,0.008,0.252,0.01,0.378l-0.01-0.006v54.525c0,0,1.09,10.639,9.076,0c2.718-3.622,7.949-10.212,13.158-16.707
	c6.4,3.643,13.799,5.734,21.691,5.734c24.259,0,43.923-19.666,43.923-43.925C367.813,210.765,366.181,204.174,363.286,198.316"/>
<path fill="#293038" d="M310.574,230.491c0,0-4.249-9.147,4.573-15.029c8.823-5.881,3.595-14.376-5.554-13.395
	c-9.149,0.98-22.732,8.168-2.287,19.603C307.633,225.916,310.574,230.491,310.574,230.491"/>
<path fill="#293038" d="M338.412,230.491c0,0,4.247-9.147-4.574-15.029c-8.821-5.881-3.595-14.376,5.554-13.395
	c9.148,0.98,22.732,8.168,2.287,19.603C341.351,225.916,338.412,230.491,338.412,230.491"/>
<path fill="#293038" d="M332.274,225.263c-0.328-0.719-1.754-1.034-3.347-1.151c-1.941-0.144-8.432-0.185-10.528,0.077
	c-1.258,0.157-2.291,0.475-2.562,1.074c-0.767,1.688,6.08,6.958,7.932,7.662v3.896c0,0.157,0.127,0.285,0.286,0.285
	c0.158,0,0.286-0.128,0.286-0.285v-3.896C326.194,232.221,333.041,226.951,332.274,225.263"/>
<path fill="#293038" d="M280.176,169.394c-8.879,11.57-0.918,22.024,6.001,24.809c4.18-9.401,11.757-16.953,21.179-21.098
	C306.509,163.358,290.224,156.301,280.176,169.394 M367.824,169.394c-10.048-13.093-26.332-6.036-27.18,3.711
	c9.421,4.144,16.999,11.696,21.179,21.098C368.741,191.42,376.703,180.965,367.824,169.394z"/>
</svg>
